HIERARCHY
ROOT Hips
{
	OFFSET 0.000000 83.214638 0.000000
	CHANNELS 6 Xposition Yposition Zposition Xrotation Yrotation Zrotation
	JOINT Pelvis
	{
		OFFSET 0.000000 0.000000 0.000000
		CHANNELS 3 Xrotation Yrotation Zrotation
		JOINT LeftUpLeg
		{
			OFFSET 8.479700 -4.795502 -0.379100
			CHANNELS 3 Xrotation Yrotation Zrotation
			JOINT LeftLeg
			{
				OFFSET 0.024144 -32.555107 0.112900
				CHANNELS 3 Xrotation Yrotation Zrotation
				JOINT LeftFoot
				{
					OFFSET -0.024144 -32.638630 -3.012600
					CHANNELS 3 Xrotation Yrotation Zrotation
					JOINT LeftToeBase
					{
						OFFSET 0.970200 -13.225400 11.864200
						CHANNELS 3 Xrotation Yrotation Zrotation
						End Site
						{
							OFFSET 0.000000 12.319262 0.000000
						}
					}
					JOINT LFootTongue
					{
						OFFSET 1.142400 -1.059800 6.665200
						CHANNELS 3 Xrotation Yrotation Zrotation
						End Site
						{
							OFFSET 0.000000 12.319262 0.000000
						}
					}
				}
				JOINT LeftPantLeg
				{
					OFFSET 0.918482 -16.533964 -2.284700
					CHANNELS 3 Xrotation Yrotation Zrotation
					End Site
					{
						OFFSET 0.350399 24.744368 0.000000
					}
				}
			}
		}
		JOINT RightUpLeg
		{
			OFFSET -8.479700 -4.795502 -0.379100
			CHANNELS 3 Xrotation Yrotation Zrotation
			JOINT RightLeg
			{
				OFFSET -0.023144 -32.555092 0.112900
				CHANNELS 3 Xrotation Yrotation Zrotation
				JOINT RightFoot
				{
					OFFSET 0.023144 -32.638641 -3.012700
					CHANNELS 3 Xrotation Yrotation Zrotation
					JOINT RightToeBase
					{
						OFFSET -0.970200 -13.225400 11.864200
						CHANNELS 3 Xrotation Yrotation Zrotation
						End Site
						{
							OFFSET 0.000000 12.319244 0.000000
						}
					}
					JOINT RFootTongue
					{
						OFFSET -1.142200 -1.059800 6.665200
						CHANNELS 3 Xrotation Yrotation Zrotation
						End Site
						{
							OFFSET 0.000000 12.319243 0.000000
						}
					}
				}
				JOINT RightPantLeg
				{
					OFFSET -0.919482 -16.533978 -2.284800
					CHANNELS 3 Xrotation Yrotation Zrotation
					End Site
					{
						OFFSET -0.350400 24.744419 0.000000
					}
				}
			}
		}
	}
	JOINT Spine
	{
		OFFSET 0.000000 7.722000 1.166200
		CHANNELS 3 Xrotation Yrotation Zrotation
		JOINT Spine1
		{
			OFFSET 0.000000 12.024101 0.248800
			CHANNELS 3 Xrotation Yrotation Zrotation
			JOINT Spine2
			{
				OFFSET 0.000000 11.502998 -0.491200
				CHANNELS 3 Xrotation Yrotation Zrotation
				JOINT Neck
				{
					OFFSET 0.000000 18.430702 -3.123100
					CHANNELS 3 Xrotation Yrotation Zrotation
					JOINT Head
					{
						OFFSET 0.000000 9.051102 1.034000
						CHANNELS 3 Xrotation Yrotation Zrotation
						JOINT HairB
						{
							OFFSET 0.208400 24.786102 24.822300
							CHANNELS 3 Xrotation Yrotation Zrotation
							End Site
							{
								OFFSET 0.000000 32.263779 0.000000
							}
						}
						JOINT HairA
						{
							OFFSET -7.081100 24.428299 23.196600
							CHANNELS 3 Xrotation Yrotation Zrotation
							End Site
							{
								OFFSET 0.000000 32.263779 0.000000
							}
						}
						JOINT Hat
						{
							OFFSET 16.728800 15.048294 -15.439601
							CHANNELS 3 Xrotation Yrotation Zrotation
							End Site
							{
								OFFSET 0.000000 32.263779 0.000000
							}
						}
					}
				}
				JOINT LeftShoulder
				{
					OFFSET 6.197800 13.665199 -4.064700
					CHANNELS 3 Xrotation Yrotation Zrotation
					JOINT LeftArm
					{
						OFFSET 7.778100 -0.187103 -1.709300
						CHANNELS 3 Xrotation Yrotation Zrotation
						JOINT LeftForeArm
						{
							OFFSET 22.049376 0.000000 0.000000
							CHANNELS 3 Xrotation Yrotation Zrotation
							JOINT LeftHand
							{
								OFFSET 23.009392 0.000000 0.000000
								CHANNELS 3 Xrotation Yrotation Zrotation
								JOINT LeftHandThumb1
								{
									OFFSET 3.507191 -2.063065 3.133727
									CHANNELS 3 Xrotation Yrotation Zrotation
									JOINT LeftHandThumb2
									{
										OFFSET 3.101337 -1.790558 1.790558
										CHANNELS 3 Xrotation Yrotation Zrotation
										JOINT LeftHandThumb3
										{
											OFFSET 3.058640 -1.765907 1.765906
											CHANNELS 3 Xrotation Yrotation Zrotation
											End Site
											{
												OFFSET -0.415260 3.926476 -0.049563
											}
										}
									}
								}
								JOINT LeftHandIndex1
								{
									OFFSET 11.334419 -0.901459 3.706815
									CHANNELS 3 Xrotation Yrotation Zrotation
									JOINT LeftHandIndex2
									{
										OFFSET 3.283112 0.000000 0.000000
										CHANNELS 3 Xrotation Yrotation Zrotation
										JOINT LeftHandIndex3
										{
											OFFSET 3.323853 0.000000 0.000000
											CHANNELS 3 Xrotation Yrotation Zrotation
											End Site
											{
												OFFSET -1.135597 3.097809 0.402452
											}
										}
									}
								}
								JOINT LeftHandMiddle1
								{
									OFFSET 11.335861 0.000000 0.000000
									CHANNELS 3 Xrotation Yrotation Zrotation
									JOINT LeftHandMiddle2
									{
										OFFSET 3.410492 0.000000 0.000000
										CHANNELS 3 Xrotation Yrotation Zrotation
										JOINT LeftHandMiddle3
										{
											OFFSET 3.312172 0.000000 0.000000
											CHANNELS 3 Xrotation Yrotation Zrotation
											End Site
											{
												OFFSET -1.150200 3.080154 0.400270
											}
										}
									}
								}
								JOINT LeftHandRing1
								{
									OFFSET 11.514786 -0.013176 -3.003090
									CHANNELS 3 Xrotation Yrotation Zrotation
									JOINT LeftHandRing2
									{
										OFFSET 3.053307 0.000000 0.000000
										CHANNELS 3 Xrotation Yrotation Zrotation
										JOINT LeftHandRing3
										{
											OFFSET 3.295807 0.000000 0.000000
											CHANNELS 3 Xrotation Yrotation Zrotation
											End Site
											{
												OFFSET -1.281006 3.013344 0.375733
											}
										}
									}
								}
								JOINT LeftHandPinky1
								{
									OFFSET 10.518692 -0.960396 -5.730441
									CHANNELS 3 Xrotation Yrotation Zrotation
									JOINT LeftHandPinky2
									{
										OFFSET 2.861649 0.000000 0.000000
										CHANNELS 3 Xrotation Yrotation Zrotation
										JOINT LeftHandPinky3
										{
											OFFSET 2.863380 0.000000 0.000000
											CHANNELS 3 Xrotation Yrotation Zrotation
											End Site
											{
												OFFSET -0.843597 2.711159 0.369971
											}
										}
									}
								}
							}
							JOINT LSleeve
							{
								OFFSET 6.676277 -0.344902 -1.011730
								CHANNELS 3 Xrotation Yrotation Zrotation
								End Site
								{
									OFFSET 0.000000 14.885353 0.000000
								}
							}
						}
					}
				}
				JOINT RightShoulder
				{
					OFFSET -6.197800 13.665199 -4.064700
					CHANNELS 3 Xrotation Yrotation Zrotation
					JOINT RightArm
					{
						OFFSET -7.778100 -0.187103 -1.709300
						CHANNELS 3 Xrotation Yrotation Zrotation
						JOINT RightForeArm
						{
							OFFSET -22.049376 0.000000 0.000000
							CHANNELS 3 Xrotation Yrotation Zrotation
							JOINT RightHand
							{
								OFFSET -23.009392 0.000000 0.000000
								CHANNELS 3 Xrotation Yrotation Zrotation
								JOINT RightHandThumb1
								{
									OFFSET -3.507191 -2.063065 3.133727
									CHANNELS 3 Xrotation Yrotation Zrotation
									JOINT RightHandThumb2
									{
										OFFSET -3.101337 -1.790558 1.790558
										CHANNELS 3 Xrotation Yrotation Zrotation
										JOINT RightHandThumb3
										{
											OFFSET -3.058640 -1.765907 1.765906
											CHANNELS 3 Xrotation Yrotation Zrotation
											End Site
											{
												OFFSET 0.415260 3.926476 -0.049563
											}
										}
									}
								}
								JOINT RightHandIndex1
								{
									OFFSET -11.334419 -0.901459 3.706815
									CHANNELS 3 Xrotation Yrotation Zrotation
									JOINT RightHandIndex2
									{
										OFFSET -3.283112 0.000000 0.000000
										CHANNELS 3 Xrotation Yrotation Zrotation
										JOINT RightHandIndex3
										{
											OFFSET -3.323853 0.000000 0.000000
											CHANNELS 3 Xrotation Yrotation Zrotation
											End Site
											{
												OFFSET 1.135597 3.097809 0.402452
											}
										}
									}
								}
								JOINT RightHandMiddle1
								{
									OFFSET -11.335861 0.000000 0.000000
									CHANNELS 3 Xrotation Yrotation Zrotation
									JOINT RightHandMiddle2
									{
										OFFSET -3.410492 0.000000 0.000000
										CHANNELS 3 Xrotation Yrotation Zrotation
										JOINT RightHandMiddle3
										{
											OFFSET -3.312172 0.000000 0.000000
											CHANNELS 3 Xrotation Yrotation Zrotation
											End Site
											{
												OFFSET 1.150200 3.080154 0.400270
											}
										}
									}
								}
								JOINT RightHandRing1
								{
									OFFSET -11.514786 -0.013176 -3.003090
									CHANNELS 3 Xrotation Yrotation Zrotation
									JOINT RightHandRing2
									{
										OFFSET -3.053307 0.000000 0.000000
										CHANNELS 3 Xrotation Yrotation Zrotation
										JOINT RightHandRing3
										{
											OFFSET -3.295807 0.000000 0.000000
											CHANNELS 3 Xrotation Yrotation Zrotation
											End Site
											{
												OFFSET 1.281006 3.013344 0.375733
											}
										}
									}
								}
								JOINT RightHandPinky1
								{
									OFFSET -10.518692 -0.960396 -5.730441
									CHANNELS 3 Xrotation Yrotation Zrotation
									JOINT RightHandPinky2
									{
										OFFSET -2.861649 0.000000 0.000000
										CHANNELS 3 Xrotation Yrotation Zrotation
										JOINT RightHandPinky3
										{
											OFFSET -2.863380 0.000000 0.000000
											CHANNELS 3 Xrotation Yrotation Zrotation
											End Site
											{
												OFFSET 0.843597 2.711159 0.369971
											}
										}
									}
								}
							}
							JOINT RSleeve
							{
								OFFSET -6.676277 -0.344902 -1.011730
								CHANNELS 3 Xrotation Yrotation Zrotation
								End Site
								{
									OFFSET 0.000000 14.885353 0.000000
								}
							}
						}
					}
				}
				JOINT Backpack
				{
					OFFSET 0.000000 -2.471497 36.677502
					CHANNELS 3 Xrotation Yrotation Zrotation
					End Site
					{
						OFFSET 0.000000 20.427315 0.000000
					}
				}
				JOINT Hood
				{
					OFFSET 0.000000 18.754097 -10.431000
					CHANNELS 3 Xrotation Yrotation Zrotation
					JOINT Hood1
					{
						OFFSET 0.000000 -5.011002 -7.685901
						CHANNELS 3 Xrotation Yrotation Zrotation
						End Site
						{
							OFFSET 0.000000 9.175140 0.000000
						}
					}
				}
				JOINT LHoodieString
				{
					OFFSET 5.250500 16.397697 3.089900
					CHANNELS 3 Xrotation Yrotation Zrotation
					JOINT LHoodieString1
					{
						OFFSET 0.257700 -6.364304 3.694600
						CHANNELS 3 Xrotation Yrotation Zrotation
						JOINT LHoodieString2
						{
							OFFSET 0.000000 -9.643799 2.679100
							CHANNELS 3 Xrotation Yrotation Zrotation
							End Site
							{
								OFFSET 0.000000 10.009018 0.000000
							}
						}
					}
				}
				JOINT RHoodieString
				{
					OFFSET -5.250500 16.397697 3.089900
					CHANNELS 3 Xrotation Yrotation Zrotation
					JOINT RHoodieString1
					{
						OFFSET -0.257700 -6.364304 3.694600
						CHANNELS 3 Xrotation Yrotation Zrotation
						JOINT RHoodieString2
						{
							OFFSET 0.000000 -9.643799 2.679100
							CHANNELS 3 Xrotation Yrotation Zrotation
							End Site
							{
								OFFSET 0.000000 10.009018 0.000000
							}
						}
					}
				}
			}
			JOINT LBackpack_Strap
			{
				OFFSET 15.223200 -7.719803 -6.610900
				CHANNELS 3 Xrotation Yrotation Zrotation
				End Site
				{
					OFFSET 0.000000 16.040596 0.000000
				}
			}
			JOINT RBackpack_Strap
			{
				OFFSET -15.223000 -7.719803 -6.610900
				CHANNELS 3 Xrotation Yrotation Zrotation
				End Site
				{
					OFFSET 0.000000 16.040596 0.000000
				}
			}
		}
	}
	JOINT BoyFacialAnim_Joint
	{
		OFFSET 1.000000 -82.208099 -1.550900
		CHANNELS 3 Xrotation Yrotation Zrotation
		End Site
		{
			OFFSET 0.000000 30.012791 0.000000
		}
	}
}
MOTION
Frames: 4
Frame Time: 0.033333
-0.402098 78.755203 -0.057854 -12.431265 -47.686595 -4.887030 -0.000000 0.000000 0.000000 -15.570185 18.331762 14.738117 25.562926 2.317690 0.644125 -1.930383 1.654586 -11.966135 -0.000000 -0.000000 -0.000000 -0.000000 -0.000000 0.000000 -0.000000 0.000003 -0.000000 -5.594931 -12.297457 -15.046850 33.683047 3.390542 -5.555021 -21.042501 -2.905094 11.468717 0.000000 0.000002 0.000000 0.000000 0.000002 0.000000 -0.000001 -0.000000 -0.000000 1.479822 0.373864 0.071732 2.957050 0.655323 0.386313 2.957053 0.655325 0.386311 14.572598 5.287894 -3.720366 0.761447 29.983547 -6.037661 -0.000000 0.000000 -0.000000 -0.000000 0.000000 -0.000000 -0.000000 0.000000 -0.000000 0.304665 -19.201135 -0.171800 -38.274194 31.784746 -20.909661 7.483215 -117.224583 4.955801 7.528542 2.796019 -0.214518 10.331068 -16.347042 1.638577 27.058648 23.234186 -54.092544 -0.000001 -0.000002 -0.000001 -3.339901 -3.853964 -108.808622 -8.508975 1.107424 -95.054609 -0.000002 0.000000 -0.000002 -8.034952 0.499719 -103.291113 -8.993092 -0.383438 -94.740550 0.000001 0.000001 0.000001 -9.078021 6.355214 -108.016928 -1.894700 -7.274922 -86.546563 0.000000 -0.000000 0.000001 -13.125235 7.301156 -109.760040 -0.023899 -11.514212 -94.102378 -0.000002 -0.000001 0.000003 0.000001 -0.000000 0.000005 -0.130280 -3.686169 1.970086 -62.330933 58.238031 97.078653 2.347637 109.660333 -3.192784 20.031586 15.266076 -3.877483 10.331059 16.347090 -1.638576 27.058650 -23.234116 54.092533 -0.000000 0.000002 0.000000 -2.944698 2.694757 108.786048 -7.176448 -2.327200 95.057833 -0.000002 -0.000002 0.000003 -7.774313 -1.602685 103.295901 -7.766086 -0.746018 94.740857 0.000002 0.000002 0.000000 -9.528852 -4.973989 107.972484 -3.179749 8.705789 86.513819 -0.000001 -0.000002 -0.000000 -14.196593 -4.324904 109.651522 -3.418917 14.667346 94.155333 0.000001 -0.000000 0.000004 -0.000000 -0.000001 -0.000001 -0.000000 -0.000002 -0.000000 -0.000000 -0.000002 -0.000000 -0.000000 -0.000002 -0.000000 -0.000000 -0.000002 -0.000000 -0.000000 -0.000002 -0.000001 -0.000000 -0.000000 -0.000000 -0.000000 -0.000002 -0.000000 -0.000000 -0.000002 -0.000001 -0.000000 -0.000000 -0.000000 -0.000000 -0.000003 -0.000000 -0.000000 -0.000003 -0.000000 -0.000000 0.000000 0.000000 
-0.407961 78.749786 -0.045328 -12.271866 -47.616524 -4.782336 -0.000001 -0.000002 -0.000000 -15.722607 18.296974 14.764280 25.628251 2.265009 0.626244 -1.958403 1.648083 -11.942002 0.000000 0.000001 -0.000000 0.000000 0.000001 -0.000000 0.000000 0.000001 0.000001 -5.631831 -12.244492 -14.970567 33.663151 3.233766 -5.595029 -21.046526 -2.926906 11.537343 0.000000 0.000000 -0.000000 0.000000 0.000000 -0.000000 -0.000002 0.000002 -0.000001 1.494233 0.373665 0.069909 2.985912 0.655595 0.379656 2.985911 0.655597 0.379656 14.527703 5.294535 -3.701010 0.657232 29.979469 -5.941102 -0.000000 -0.000000 -0.000000 -0.000000 -0.000000 -0.000000 -0.000000 -0.000000 -0.000000 0.302823 -19.209651 -0.193665 -38.335410 31.731153 -20.929390 7.479960 -117.247423 4.954495 7.106210 2.652235 -0.144901 10.332596 -16.348334 1.640413 27.058904 23.233320 -54.094654 -0.000000 -0.000001 0.000000 -3.339900 -3.853962 -108.808636 -8.508988 1.107422 -95.054602 -0.000001 0.000003 -0.000005 -8.034908 0.499725 -103.291107 -8.993092 -0.383438 -94.740550 -0.000000 0.000000 0.000004 -9.078031 6.355208 -108.016915 -1.894700 -7.274923 -86.546563 -0.000001 0.000002 0.000007 -13.125231 7.301156 -109.759917 -0.023912 -11.514223 -94.102986 -0.000002 -0.000003 0.000001 0.000002 0.000001 0.000005 -0.130595 -3.593885 2.011648 -62.049926 58.222103 96.829270 2.324428 109.798351 -3.165106 20.124326 15.128191 -3.765833 10.332553 16.348370 -1.640408 27.058947 -23.233273 54.094661 -0.000000 0.000000 -0.000001 -2.944710 2.694748 108.786083 -7.176459 -2.327200 95.057846 -0.000002 0.000003 0.000001 -7.774324 -1.602698 103.295915 -7.766094 -0.746014 94.740844 -0.000002 0.000000 -0.000000 -9.528859 -4.973993 107.972464 -3.179721 8.705780 86.513819 0.000000 0.000001 0.000002 -14.196582 -4.324901 109.651379 -3.418958 14.667345 94.155920 0.000002 -0.000005 -0.000002 0.000001 -0.000001 -0.000002 -0.000000 -0.000001 -0.000000 -0.000000 -0.000001 -0.000000 -0.000000 -0.000001 -0.000000 -0.000000 -0.000001 -0.000000 -0.000000 -0.000001 -0.000000 0.000000 -0.000001 -0.000000 -0.000000 -0.000001 -0.000000 -0.000000 -0.000001 -0.000000 0.000000 -0.000001 -0.000000 0.000000 0.000000 0.000000 0.000000 0.000000 0.000000 -0.000001 -0.000002 -0.000000 
-0.410141 78.758598 -0.029002 -12.079651 -47.380954 -4.664180 0.000000 -0.000001 -0.000000 -15.896574 18.238796 14.776636 25.629535 2.098005 0.614895 -1.938831 1.619817 -11.876638 -0.000000 0.000002 -0.000000 -0.000000 0.000002 0.000000 0.000000 0.000000 0.000001 -5.533336 -12.172907 -14.804126 33.500493 2.849012 -5.648903 -20.998517 -2.962145 11.687944 -0.000000 -0.000002 0.000000 -0.000000 -0.000002 0.000000 0.000001 -0.000001 0.000000 1.517934 0.389608 0.060221 3.033313 0.688478 0.352955 3.033310 0.688454 0.352955 14.401199 5.268329 -3.550345 0.579832 29.908623 -5.950721 0.000001 0.000001 -0.000000 0.000001 0.000001 -0.000000 0.000001 0.000001 -0.000000 0.301346 -19.227710 -0.192210 -38.448979 31.514489 -21.077783 7.481203 -117.194476 4.969646 6.949907 2.762431 -0.361138 10.337111 -16.352192 1.645903 27.059763 23.230735 -54.101047 -0.000001 0.000005 -0.000000 -3.339895 -3.853969 -108.808636 -8.508983 1.107422 -95.054588 -0.000002 0.000003 0.000000 -8.034741 0.499734 -103.291127 -8.993089 -0.383449 -94.740523 -0.000002 0.000003 0.000006 -9.078030 6.355207 -108.016921 -1.894680 -7.274917 -86.546577 -0.000001 0.000001 0.000002 -13.125218 7.301150 -109.759521 -0.023956 -11.514207 -94.104823 0.000001 0.000000 0.000001 -0.000000 -0.000000 -0.000002 -0.118074 -3.637547 2.280743 -61.677605 58.319031 96.433180 2.261541 110.007983 -3.097664 20.214186 15.077431 -4.116557 10.337092 16.352229 -1.645914 27.059779 -23.230675 54.101020 0.000001 -0.000000 -0.000002 -2.944718 2.694756 108.786048 -7.176470 -2.327218 95.057819 -0.000000 0.000000 0.000005 -7.774325 -1.602688 103.295901 -7.766094 -0.746012 94.740816 0.000002 0.000000 -0.000002 -9.528839 -4.973989 107.972464 -3.179756 8.705795 86.513826 0.000000 -0.000002 0.000002 -14.196539 -4.324880 109.650996 -3.419117 14.667339 94.157819 -0.000000 -0.000003 -0.000000 0.000000 0.000001 -0.000004 -0.000000 -0.000002 -0.000000 -0.000000 -0.000002 -0.000000 -0.000000 -0.000002 -0.000000 -0.000000 -0.000002 -0.000000 -0.000000 -0.000002 -0.000000 0.000000 0.000002 0.000000 -0.000000 -0.000002 -0.000000 -0.000000 -0.000002 -0.000000 0.000000 0.000002 0.000000 -0.000000 -0.000002 -0.000000 -0.000000 -0.000002 -0.000000 0.000000 -0.000001 -0.000000 
-0.405660 78.785385 -0.006549 -11.846344 -47.025870 -4.533801 -0.000000 -0.000000 -0.000000 -16.078924 18.150563 14.768206 25.549251 1.867344 0.614761 -1.867891 1.575805 -11.783721 -0.000000 -0.000001 -0.000000 -0.000000 -0.000001 -0.000000 0.000000 0.000001 0.000001 -5.333539 -12.108387 -14.570796 33.187213 2.322481 -5.705389 -20.884236 -3.005480 11.890422 -0.000000 0.000000 0.000000 -0.000000 0.000000 0.000000 0.000001 -0.000000 0.000001 1.546506 0.411164 0.042021 3.090521 0.732733 0.305549 3.090524 0.732722 0.305549 14.207492 5.223333 -3.296567 0.553247 29.795522 -6.015768 0.000000 -0.000000 0.000000 0.000000 -0.000000 0.000000 0.000000 -0.000000 0.000000 0.300952 -19.249538 -0.142690 -38.598157 31.146346 -21.267696 7.486377 -117.087966 4.996524 6.928207 2.940505 -0.668389 10.344642 -16.358580 1.655020 27.061134 23.226419 -54.111579 -0.000001 -0.000002 -0.000001 -3.339887 -3.853960 -108.808629 -8.508964 1.107430 -95.054595 -0.000002 0.000003 -0.000005 -8.034480 0.499757 -103.291175 -8.993099 -0.383460 -94.740529 -0.000002 0.000001 0.000002 -9.077999 6.355218 -108.016969 -1.894681 -7.274932 -86.546536 -0.000000 -0.000000 0.000005 -13.125166 7.301126 -109.758920 -0.024009 -11.514210 -94.107870 0.000001 -0.000002 -0.000000 0.000001 0.000001 0.000004 -0.099635 -3.743196 2.686326 -61.113275 58.402256 95.928436 2.143310 110.281621 -2.975542 20.307090 15.314341 -5.267389 10.344610 16.358622 -1.655029 27.061192 -23.226347 54.111603 0.000002 0.000000 -0.000002 -2.944700 2.694742 108.786048 -7.176449 -2.327192 95.057819 -0.000001 -0.000002 -0.000000 -7.774313 -1.602694 103.295901 -7.766084 -0.746006 94.740837 0.000001 0.000002 -0.000005 -9.528852 -4.973996 107.972471 -3.179753 8.705791 86.513826 0.000004 -0.000001 -0.000003 -14.196487 -4.324871 109.650354 -3.419348 14.667312 94.160879 -0.000002 -0.000003 -0.000002 0.000001 0.000000 -0.000004 -0.000000 -0.000000 0.000000 -0.000000 -0.000000 0.000000 -0.000000 -0.000000 0.000000 -0.000000 -0.000000 0.000000 -0.000000 -0.000000 -0.000000 -0.000000 -0.000002 -0.000000 -0.000000 -0.000000 0.000000 -0.000000 -0.000000 -0.000000 -0.000000 -0.000002 -0.000000 -0.000000 -0.000001 0.000000 -0.000000 -0.000001 0.000000 -0.000000 -0.000000 -0.000000 
